<?xml version="1.0" encoding="UTF-8"?>
<svg width="700pt" height="700pt" version="1.1" viewBox="0 0 700 700" xmlns="http://www.w3.org/2000/svg">
 <g>
  <path d="m185.22 131.11 15.84-15.84 313.62 313.62-15.84 15.84z"/>
  <path d="m439.6 89.602h-179.2c-8.9102 0-17.457 3.5391-23.758 9.8398-6.3008 6.3008-9.8398 14.848-9.8398 23.758v49.281l22.398 22.398v-71.68c0-6.1836 5.0156-11.199 11.199-11.199h179.2c2.9688 0 5.8164 1.1797 7.918 3.2812 2.1016 2.0977 3.2812 4.9492 3.2812 7.918v273.28l22.398 22.398v-295.68c0-8.9102-3.5391-17.457-9.8398-23.758-6.3008-6.3008-14.848-9.8398-23.758-9.8398zm11.199 347.2c0 2.9688-1.1797 5.8203-3.2812 7.918-2.1016 2.1016-4.9492 3.2812-7.918 3.2812h-179.2c-6.1836 0-11.199-5.0156-11.199-11.199v-210.11l-22.398-22.398v232.51c0 8.9102 3.5391 17.457 9.8398 23.758 6.3008 6.3008 14.848 9.8398 23.758 9.8398h179.2c6.9062 0 13.645-2.1562 19.27-6.1719 5.6211-4.0195 9.8477-9.6914 12.09-16.227l-20.16-20.16z"/>
  <path d="m175.95 380.8h-22.402c-0.19922-9.2422 2.4609-18.316 7.6172-25.984 2.918-4.2539 4.4805-9.2891 4.4805-14.449 0-5.1562-1.5625-10.195-4.4805-14.445-4.9766-7.7148-7.625-16.695-7.625-25.875 0-9.1758 2.6484-18.16 7.625-25.871 2.918-4.2539 4.4805-9.2891 4.4805-14.449 0-5.1562-1.5625-10.195-4.4805-14.445-5.1133-7.6055-7.7734-16.598-7.6172-25.762-0.19922-9.2383 2.4609-18.316 7.6172-25.984 3.0977-4.1211 4.6797-9.1836 4.4805-14.336h22.398c0.20312 9.2422-2.457 18.316-7.6133 25.984-2.9297 4.207-4.5 9.2109-4.5 14.336s1.5703 10.129 4.5 14.336c4.9766 7.7109 7.6211 16.695 7.6211 25.871 0 9.1797-2.6445 18.164-7.6211 25.875-2.918 4.25-4.4805 9.2891-4.4805 14.445 0 5.1602 1.5625 10.195 4.4805 14.449 5.1562 7.668 7.8164 16.746 7.6133 25.984 0.20312 9.2383-2.457 18.316-7.6133 25.984-3.1016 4.1211-4.6836 9.1836-4.4805 14.336z"/>
  <path d="m546.45 380.8h-22.402c0.20312-5.1523-1.3789-10.215-4.4805-14.336-5.1562-7.668-7.8164-16.746-7.6133-25.984-0.39453-9.543 2.2773-18.961 7.6133-26.879 2.918-4.2539 4.4805-9.293 4.4805-14.449 0-5.1602-1.5625-10.195-4.4805-14.449-4.9766-7.7109-7.6211-16.695-7.6211-25.871 0-9.1797 2.6445-18.16 7.6211-25.871 2.9297-4.207 4.5-9.2109 4.5-14.336 0-5.1289-1.5703-10.129-4.5-14.336-4.9805-7.418-7.6328-16.152-7.6133-25.09h22.398c-0.19922 5.1523 1.3828 10.215 4.4805 14.336 5.1562 7.668 7.8164 16.746 7.6172 25.984 0.39062 9.543-2.2773 18.961-7.6172 26.879-2.918 4.2539-4.4805 9.293-4.4805 14.449 0 5.1602 1.5625 10.195 4.4805 14.449 4.9766 7.7109 7.625 16.695 7.625 25.871 0 9.1797-2.6484 18.16-7.625 25.871-2.918 4.2539-4.4805 9.2891-4.4805 14.449 0 5.1562 1.5625 10.195 4.4805 14.449 4.9414 7.3516 7.5898 16.004 7.6172 24.863z"/>
  <path d="m294 403.2h112v22.398h-112z"/>
 </g>
</svg>
